# Blender v3.2.2 OBJ File: ''
# www.blender.org
o skull
v -5.227732 -7.816627 8.447175
v -3.801936 -12.817774 12.657435
v -6.569147 -3.041633 6.133523
v -7.217592 -2.179672 1.672885
v -7.015003 -4.319759 3.381831
v -6.249228 -4.405349 3.199018
v 0.772457 -8.537066 13.747964
v -2.275672 -8.725724 12.528503
v -6.693265 -10.564414 2.828556
v -5.931861 -11.779311 6.810430
v -4.103308 -10.879714 12.883809
v -1.963887 -8.014530 14.292579
v -3.847058 -8.366861 8.019171
v 5.755143 -7.902057 8.214938
v 6.591461 -3.038331 6.231116
v 6.834546 -4.059056 3.587427
v 6.449700 -2.676519 1.924239
v -0.022523 -12.994399 15.081926
v 6.609448 -10.458618 2.840005
v 5.056829 -12.643160 9.716707
v 3.850991 -12.697199 12.993048
v 7.550993 -2.160480 1.594507
v 3.883942 -10.619678 12.988926
v 1.876692 -8.340443 14.523359
v 3.903817 -8.450467 8.112723
v 1.990948 -5.596071 13.298797
v 2.983449 -5.773805 13.466550
v -0.656622 -5.441304 14.656568
v -2.075720 -5.648569 13.359843
v -2.990102 -5.754623 13.761244
v -4.173439 -5.818196 11.495008
v 2.133229 -8.431959 14.257915
v 2.180419 -8.416093 13.092039
v -0.408487 -8.137031 14.141485
v -2.133229 -8.431959 14.257915
v -1.539464 -8.063384 13.696287
v -2.179813 -8.416460 13.091828
v -2.694899 -7.853148 13.853869
v -2.777157 -8.164066 12.370283
v -3.496292 -8.105554 8.006767
v -1.048849 -8.200015 14.261336
v -3.440569 5.014532 12.876032
v -5.131811 5.226015 12.474733
v 1.354302 10.114507 11.693892
v -7.445639 5.340100 8.743733
v -1.204087 2.377195 12.964010
v -9.502667 -2.225232 6.359634
v -7.803992 1.895578 9.243688
v -7.555653 -1.180978 9.514176
v -3.200549 -1.088091 13.040531
v -7.664431 -1.653111 5.043151
v -8.569670 9.092601 6.699331
v -6.418010 1.883626 7.723397
v -3.114217 -1.910682 10.222342
v -5.296548 -1.595925 8.594254
v -2.169295 1.477143 8.406368
v -5.717110 13.613745 2.962941
v -2.849440 13.122129 8.034661
v -7.375518 -3.101725 10.452504
v -9.549947 -1.889939 1.869680
v -7.828891 9.354205 -8.708206
v -4.478930 4.335061 -13.616153
v -9.940278 7.945308 -1.456679
v -7.869511 0.389172 -11.974537
v -9.306338 -2.738375 -6.473140
v 4.547077 -1.277568 -13.602106
v -6.020534 -5.050152 -10.403195
v -0.342201 -6.037317 -10.479609
v -6.673426 -2.659677 0.361283
v -3.124591 -5.925404 13.685260
v -7.437501 -4.191623 8.111334
v -8.810472 -1.787854 3.456677
v -4.486270 -2.276237 3.466241
v -4.786453 -4.309499 9.153280
v -2.325327 -5.177587 7.707988
v 0.662740 -4.251344 7.043804
v -0.001796 -5.749622 15.180275
v -0.449769 -4.462553 11.199855
v -2.313446 -3.634196 3.297735
v -7.614326 -6.153365 -1.807752
v 0.002820 -5.557253 -4.814941
v -2.870467 -5.936938 -2.836786
v 0.280259 -0.835627 -4.004323
v -2.023111 -1.778087 -1.972275
v -1.843739 -5.413643 0.508874
v 1.976837 -2.089865 -1.320040
v -1.681894 -3.418985 14.302969
v -9.398843 -2.244707 4.758810
v -8.039988 -1.913484 6.665487
v -1.673779 -4.268195 11.629395
v -0.895395 -2.652253 8.971910
v -0.443233 -0.007944 11.752034
v -0.269353 -3.283569 11.591402
v 0.309900 -2.852442 9.477821
v 0.139310 -3.262350 11.672874
v -0.668273 0.917160 14.287426
v -0.866620 11.860873 -10.170306
v -0.083222 -3.809672 13.319796
v 6.413467 4.049588 11.744852
v 7.968007 9.580380 7.642367
v 3.380029 5.063678 12.818282
v 1.257898 2.653431 13.012290
v 1.558619 -3.770198 14.236828
v 3.224072 -1.323124 12.971044
v 7.759214 -2.347383 6.712656
v 7.621247 2.542903 9.194212
v 4.841254 -1.347018 12.432870
v 7.463829 -1.262573 9.713703
v 6.305794 2.108521 7.924553
v 5.143829 -0.786509 7.984813
v 2.216929 1.495228 8.361091
v 3.090923 -1.990390 10.236702
v 5.287968 13.618432 4.491380
v 4.531917 -4.152936 9.842178
v 9.614004 9.040242 -1.033843
v 9.343625 -1.793410 3.009655
v 6.491658 11.767858 -6.062594
v 0.421342 14.645890 -2.805061
v 4.278152 7.017808 -12.854705
v 8.308396 3.170946 -11.067006
v 8.905374 7.962108 -7.906670
v 6.538368 -5.252052 -9.655532
v 9.192963 -2.637298 -5.920208
v 7.624395 -2.818752 0.048546
v 7.687564 -6.107498 -1.787422
v 3.239774 -5.932264 13.545950
v 4.314333 -6.458811 7.870296
v 7.011467 -1.614952 4.204356
v 8.035044 -4.260108 9.404613
v 4.387152 -4.149962 7.504612
v 2.339174 -5.131697 7.626313
v 0.674905 -3.978061 3.539737
v 3.721494 -2.737868 3.351601
v 2.944796 -5.963800 -2.646322
v 1.617427 -4.491178 -0.150244
v 2.313033 -5.636311 0.173499
v 1.699593 -1.237939 13.946937
v 0.497172 1.432777 14.842434
v 9.649684 -2.208827 5.165180
v 9.236067 -2.679889 6.048360
v 8.337171 -1.444980 3.517375
v 0.261083 0.128481 11.009600
v 1.222785 -1.544145 9.648230
v 1.716396 -4.256914 11.589921
vt 0.106676 0.696205
vt 0.082359 0.805686
vt 0.054481 0.715602
vt 0.046446 0.791016
vt 0.386889 0.955132
vt 0.342603 0.900919
vt 0.337871 0.882021
vt 0.426285 0.938497
vt 0.416000 0.852705
vt 0.456321 0.951137
vt 0.370314 0.837098
vt 0.281644 0.822716
vt 0.282499 0.866959
vt 0.244123 0.820444
vt 0.249884 0.689635
vt 0.225829 0.747455
vt 0.192479 0.714085
vt 0.264183 0.895142
vt 0.228579 0.880224
vt 0.128887 0.755798
vt 0.157474 0.762464
vt 0.371386 0.758234
vt 0.311857 0.717863
vt 0.311050 0.691653
vt 0.383362 0.765462
vt 0.422440 0.807751
vt 0.458334 0.792802
vt 0.447174 0.707677
vt 0.029272 0.945268
vt 0.091542 0.956542
vt 0.056553 0.945373
vt 0.066496 0.852591
vt 0.019107 0.951122
vt 0.154825 0.829423
vt 0.207522 0.822526
vt 0.137687 0.888199
vt 0.488236 0.807491
vt 0.475916 0.809270
vt 0.450045 0.271604
vt 0.514972 0.343515
vt 0.419794 0.284652
vt 0.548783 0.272322
vt 0.450096 0.399025
vt 0.374303 0.346319
vt 0.366075 0.239786
vt 0.295367 0.205466
vt 0.322154 0.176810
vt 0.268524 0.226933
vt 0.377431 0.287417
vt 0.454703 0.243575
vt 0.473627 0.229058
vt 0.427437 0.190217
vt 0.445773 0.174224
vt 0.488330 0.196359
vt 0.505170 0.204439
vt 0.234710 0.278980
vt 0.249765 0.252432
vt 0.043988 0.550278
vt 0.038276 0.610412
vt 0.022338 0.613116
vt 0.085071 0.605116
vt 0.093653 0.655044
vt 0.089139 0.559152
vt 0.118120 0.608432
vt 0.055284 0.564917
vt 0.378143 0.155203
vt 0.390028 0.121863
vt 0.482149 0.144988
vt 0.350372 0.137027
vt 0.296388 0.391010
vt 0.383377 0.434943
vt 0.236883 0.475654
vt 0.144341 0.490825
vt 0.137716 0.422193
vt 0.156702 0.340898
vt 0.094938 0.369877
vt 0.070725 0.485124
vt 0.225057 0.270957
vt 0.148065 0.283222
vt 0.186207 0.258074
vt 0.460512 0.111078
vt 0.502527 0.108959
vt 0.210877 0.206904
vt 0.240079 0.189796
vt 0.399740 0.032562
vt 0.399918 0.059023
vt 0.381900 0.041700
vt 0.032520 0.366258
vt 0.091257 0.257146
vt 0.129779 0.213012
vt 0.379451 0.610604
vt 0.405308 0.639224
vt 0.354442 0.627758
vt 0.336333 0.604083
vt 0.179051 0.183616
vt 0.120438 0.180228
vt 0.161194 0.155647
vt 0.379663 0.576870
vt 0.731202 0.592944
vt 0.761836 0.594268
vt 0.745741 0.599766
vt 0.325614 0.154186
vt 0.320200 0.147100
vt 0.482609 0.550389
vt 0.459838 0.534943
vt 0.438030 0.516041
vt 0.429580 0.544788
vt 0.440734 0.615061
vt 0.480411 0.593440
vt 0.187300 0.586665
vt 0.168099 0.636727
vt 0.165810 0.580390
vt 0.503184 0.587838
vt 0.500853 0.547780
vt 0.592513 0.270030
vt 0.612336 0.354287
vt 0.525946 0.233650
vt 0.551106 0.167345
vt 0.599007 0.122856
vt 0.521000 0.138852
vt 0.744963 0.254174
vt 0.633729 0.246761
vt 0.714674 0.206576
vt 0.608299 0.245226
vt 0.524400 0.159163
vt 0.757392 0.281817
vt 0.696929 0.404637
vt 0.666974 0.591552
vt 0.658588 0.635816
vt 0.646376 0.599331
vt 0.594627 0.674443
vt 0.612725 0.627464
vt 0.611290 0.582613
vt 0.579000 0.636695
vt 0.597649 0.427292
vt 0.533289 0.439253
vt 0.627691 0.190832
vt 0.575730 0.171137
vt 0.637912 0.149217
vt 0.681952 0.182802
vt 0.677572 0.158738
vt 0.718136 0.486677
vt 0.764139 0.458818
vt 0.828786 0.506542
vt 0.754993 0.566224
vt 0.640563 0.532225
vt 0.835737 0.440242
vt 0.837266 0.339751
vt 0.764990 0.271082
vt 0.810375 0.270224
vt 0.851656 0.286943
vt 0.899137 0.365745
vt 0.669321 0.132531
vt 0.658000 0.099667
vt 0.535152 0.057149
vt 0.543997 0.110418
vt 0.597691 0.085346
vt 0.602230 0.059240
vt 0.781600 0.167100
vt 0.813207 0.146249
vt 0.768932 0.180080
vt 0.837295 0.169466
vt 0.802754 0.202306
vt 0.902744 0.255876
vt 0.950320 0.276137
vt 0.961017 0.366277
vt 0.862013 0.221799
vt 0.359211 0.668533
vt 0.315051 0.644837
vt 0.323368 0.588138
vt 0.891215 0.207211
vt 0.757271 0.229968
vt 0.769091 0.262096
vt 0.759653 0.255409
vt 0.240661 0.602479
vt 0.251249 0.599162
vt 0.274945 0.589363
vt 0.238645 0.635145
vt 0.273560 0.618283
vt 0.243756 0.638611
vt 0.251612 0.613602
vt 0.548930 0.622898
vt 0.551008 0.578207
vt 0.530262 0.535930
vt 0.554631 0.515619
vt 0.511144 0.566299
vt 0.530634 0.610342
vt 0.145423 0.585235
vt 0.141150 0.622470
vt 0.142763 0.587629
vt 0.282091 0.742178
vt 0.174126 0.686963
vt 0.057560 0.794289
vt 0.017187 0.808090
vt 0.433207 0.948474
vt 0.346503 0.687321
vt 0.368608 0.755686
vt 0.219698 0.897700
vt 0.207022 0.896952
vt 0.178824 0.897141
vt 0.372433 0.192611
vt 0.391073 0.244981
vt 0.765492 0.612665
vt 0.723908 0.609494
vt 0.726908 0.625039
vt 0.343860 0.543983
vt 0.241723 0.558078
vt 0.126427 0.548574
vt 0.329900 0.112000
vt 0.464426 0.061929
vt 0.420232 0.030919
vt 0.218100 0.165700
vt 0.189445 0.143320
vt 0.039995 0.283616
vt 0.760611 0.632402
vt 0.270645 0.202427
vt 0.485509 0.521476
vt 0.191140 0.624627
vt 0.500924 0.522517
vt 0.187710 0.613219
vt 0.545739 0.243536
vt 0.555642 0.199366
vt 0.606402 0.188494
vt 0.675782 0.633783
vt 0.901509 0.440828
vt 0.903324 0.527624
vt 0.623710 0.089146
vt 0.571605 0.032735
vt 0.562455 0.531862
vt 0.564533 0.515304
vn -0.2915 -0.8833 -0.3673
vn -0.1774 0.9158 0.3603
vn -0.1143 -0.7807 -0.6144
vn -0.8512 0.4805 0.2110
vn -0.5474 0.5384 0.6407
vn 0.9454 0.1871 -0.2670
vn 0.8511 0.4413 -0.2846
vn -0.1672 0.8758 -0.4528
vn -0.2016 -0.9720 0.1211
vn 0.8039 0.1232 -0.5819
vn 0.1124 -0.9037 0.4131
vn -0.2643 0.7866 0.5580
vn -0.8019 0.0223 0.5971
vn -0.1594 0.6411 -0.7507
vn 0.7440 0.3394 0.5756
vn 0.7760 0.0852 0.6250
vn 0.2122 -0.9061 0.3659
vn -0.9402 0.2729 -0.2039
vn 0.2429 0.8222 0.5147
vn 0.9774 0.0897 0.1913
vn 0.2258 -0.7003 -0.6772
vn -0.6194 0.6613 -0.4231
vn 0.4667 0.7840 -0.4093
vn 0.5002 -0.3130 -0.8073
vn -0.2465 -0.1617 0.9556
vn 0.1217 0.5733 0.8102
vn -0.4915 0.0163 0.8707
vn 0.3231 -0.1354 0.9366
vn -0.2353 0.8320 0.5023
vn -0.8453 0.3604 0.3945
vn -0.6707 -0.2283 0.7057
vn -0.5033 0.2163 -0.8366
vn -0.9933 0.1156 -0.0076
vn -0.7343 -0.6777 0.0388
vn -0.9170 0.0126 0.3987
vn -0.6810 -0.1603 0.7145
vn -0.6162 0.1947 0.7632
vn -0.4720 0.8719 0.1303
vn -0.8054 0.2830 0.5208
vn -0.1555 -0.1357 0.9785
vn 0.0244 0.1239 0.9920
vn -0.9880 -0.1231 0.0936
vn -0.3728 0.1839 0.9095
vn -0.4985 0.4099 0.7639
vn 0.2977 -0.3651 0.8821
vn 0.0502 0.7604 0.6475
vn -0.5985 -0.3859 0.7020
vn -0.6700 -0.7411 0.0444
vn -0.1804 0.4083 0.8949
vn -0.3290 -0.9332 -0.1446
vn -0.9529 0.3001 -0.0442
vn -0.4932 0.8661 0.0814
vn -0.7057 0.5443 -0.4536
vn -0.2994 0.1668 -0.9394
vn -0.6880 -0.1310 -0.7138
vn -0.9250 -0.3374 -0.1749
vn -0.4241 -0.6979 -0.5771
vn 0.3038 -0.2761 -0.9118
vn -0.2487 -0.9635 -0.0994
vn -0.5995 -0.7155 0.3586
vn -0.3388 -0.8459 0.4119
vn -0.5631 -0.6527 0.5069
vn 0.0193 -0.6194 0.7849
vn -0.3892 -0.9203 0.0398
vn 0.1015 -0.8320 -0.5455
vn -0.0086 -0.9451 -0.3265
vn -0.3248 -0.9371 0.1280
vn -0.0199 -0.8635 -0.5040
vn 0.4350 -0.8782 0.1988
vn 0.1499 -0.9835 0.1012
vn 0.6937 -0.7024 -0.1594
vn -0.0828 -0.8273 0.5556
vn -0.6392 -0.6513 -0.4089
vn -0.6104 -0.6352 -0.4732
vn 0.1248 -0.9752 0.1826
vn 0.4083 0.1778 0.8954
vn 0.5720 0.7650 0.2961
vn 0.0637 0.9967 -0.0509
vn 0.0557 -0.9979 -0.0317
vn -0.0532 -0.9036 0.4252
vn -0.2186 0.4887 0.8446
vn 0.4661 -0.3675 0.8048
vn 0.7911 0.4217 0.4431
vn 0.5799 0.2340 0.7803
vn 0.8262 0.2291 0.5147
vn 0.6691 -0.6058 0.4305
vn 0.2397 0.5727 0.7840
vn 0.7177 0.2522 0.6491
vn 0.6751 -0.3144 0.6674
vn 0.4560 -0.5670 -0.6860
vn -0.2857 -0.3864 0.8769
vn -0.3067 -0.2419 0.9205
vn 0.9191 0.3441 0.1918
vn 0.9379 0.3468 -0.0101
vn 0.4191 0.3675 0.8302
vn -0.0527 0.5211 0.8519
vn 0.6834 -0.1681 0.7104
vn 0.4847 0.8541 0.1887
vn 0.4307 0.8755 0.2189
vn 0.2578 0.4920 0.8315
vn 0.6206 -0.7237 0.3019
vn 0.9201 -0.0235 -0.3910
vn 0.1070 -0.9381 -0.3295
vn 0.5327 0.7783 -0.3325
vn 0.8542 0.3617 -0.3735
vn 0.3150 0.3975 -0.8619
vn -0.0817 0.7815 -0.6185
vn -0.0084 0.9852 -0.1710
vn 0.8070 0.0406 -0.5891
vn 0.9490 -0.2790 -0.1468
vn 0.3867 -0.8441 0.3715
vn 0.5783 -0.7404 0.3426
vn 0.5239 -0.7162 -0.4611
vn 0.1101 -0.9931 -0.0404
vn 0.0631 -0.9943 -0.0865
vn 0.5962 -0.6180 0.5125
vn 0.4048 -0.7916 -0.4577
vn -0.1398 -0.7495 -0.6470
vn 0.3742 -0.7744 -0.5102
vn 0.3492 -0.9285 0.1263
vn -0.4213 -0.8911 0.1688
vn -0.0119 -0.8478 0.5301
vn -0.3265 -0.9029 0.2796
vn -0.5449 0.7955 0.2650
vn -0.4990 -0.3344 0.7995
vn 0.9725 0.0700 -0.2221
vn 0.3025 0.6614 0.6863
vn -0.5336 0.8457 -0.0085
s 1
f 10/1/1 3/2/2 9/3/3
f 3/2/2 5/4/4 9/3/3
f 3/5/2 1/6/5 13/7/6
f 6/8/7 9/9/3 4/10/8
f 9/9/3 6/8/7 10/11/1
f 2/12/9 8/13/10 18/14/11
f 18/15/11 12/16/12 11/17/13
f 8/13/10 12/18/12 7/19/14
f 1/20/5 12/16/12 13/21/6
f 14/22/15 23/23/16 21/24/17
f 25/25/18 14/22/15 15/26/19
f 16/27/20 14/22/15 19/28/21
f 14/22/15 16/27/20 15/26/19
f 17/29/22 15/30/19 16/31/20
f 19/32/21 17/29/22 22/33/23
f 7/19/14 20/34/24 21/35/17
f 20/34/24 7/19/14 25/36/18
f 22/37/23 17/38/22 16/27/20
f 23/23/16 18/15/11 21/24/17
f 42/39/25 44/40/26 43/41/27
f 44/40/26 42/39/25 101/42/28
f 43/41/27 58/43/29 52/44/30
f 48/45/31 89/46/32 47/47/33
f 51/48/34 45/49/35 52/44/30
f 45/49/35 51/48/34 89/46/32
f 42/39/25 43/41/27 48/45/31
f 56/50/36 46/51/37 42/39/25
f 46/51/37 54/52/38 50/53/39
f 46/51/37 96/54/40 138/55/41
f 52/44/30 60/56/42 72/57/43
f 51/48/34 52/44/30 72/57/43
f 49/58/44 53/59/45 48/60/31
f 56/61/36 42/62/25 53/59/45
f 54/63/38 46/64/37 56/61/36
f 54/63/38 55/65/46 49/58/44
f 53/59/45 49/58/44 55/65/46
f 59/66/47 74/67/48 50/53/39
f 50/53/39 74/67/48 87/68/49
f 59/66/47 71/69/50 74/67/48
f 63/70/51 52/44/30 57/71/52
f 61/72/53 62/73/54 64/74/55
f 63/70/51 61/72/53 64/74/55
f 63/70/51 65/75/56 60/56/42
f 67/76/57 64/74/55 66/77/58
f 62/73/54 66/77/58 64/74/55
f 65/75/56 88/78/59 60/56/42
f 80/79/60 65/75/56 67/76/57
f 65/75/56 69/80/61 88/78/59
f 65/75/56 80/79/60 69/80/61
f 87/68/49 74/67/48 70/81/62
f 87/68/49 70/81/62 77/82/63
f 72/57/43 73/83/64 51/48/34
f 51/48/34 73/83/64 74/84/48
f 76/85/65 75/86/66 79/87/67
f 68/88/68 80/79/60 67/76/57
f 80/79/60 68/88/68 82/89/69
f 82/89/69 85/90/70 80/79/60
f 84/91/71 82/92/69 83/93/72
f 86/94/73 84/91/71 83/93/72
f 73/83/64 69/80/61 79/95/67
f 85/90/70 135/96/74 132/97/75
f 85/98/70 82/92/69 84/91/71
f 87/68/49 96/54/40 50/53/39
f 73/83/64 72/57/43 69/80/61
f 72/99/43 89/100/32 88/101/59
f 71/69/50 88/102/59 89/103/32
f 91/104/76 90/105/77 98/106/78
f 90/105/77 91/104/76 87/107/49
f 87/107/49 91/104/76 96/108/40
f 92/109/79 96/108/40 91/104/76
f 92/110/79 98/111/78 96/112/40
f 142/113/80 92/109/79 91/104/76
f 94/114/81 142/113/80 91/104/76
f 85/90/70 132/97/75 79/95/67
f 44/40/26 99/115/82 100/116/83
f 44/40/26 101/42/28 99/115/82
f 46/51/37 138/55/41 102/117/84
f 104/118/85 102/117/84 138/55/41
f 114/119/86 104/118/85 103/120/87
f 141/121/88 106/122/89 105/123/90
f 100/116/83 106/122/89 141/121/88
f 109/124/91 106/122/89 99/115/82
f 137/125/92 103/120/87 104/118/85
f 100/116/83 141/121/88 116/126/93
f 115/127/94 100/116/83 116/126/93
f 108/128/95 109/129/91 110/130/96
f 101/131/28 111/132/97 109/129/91
f 112/133/98 111/132/97 102/134/84
f 110/130/96 112/133/98 108/128/95
f 111/132/97 112/133/98 110/130/96
f 111/132/97 110/130/96 109/129/91
f 113/135/99 58/136/29 44/40/26
f 108/137/95 107/138/100 129/139/101
f 104/118/85 114/119/86 107/138/100
f 114/119/86 129/139/101 107/138/100
f 139/140/102 129/139/101 140/141/103
f 113/135/99 100/116/83 115/127/94
f 113/135/99 115/127/94 117/142/104
f 117/142/104 121/143/105 119/144/106
f 119/144/106 97/145/107 117/142/104
f 117/142/104 97/145/107 118/146/108
f 121/143/105 120/147/109 119/144/106
f 117/142/104 115/127/94 121/143/105
f 123/148/110 120/147/109 121/143/105
f 116/126/93 139/149/102 123/148/110
f 139/149/102 124/150/111 123/148/110
f 125/151/112 122/152/113 123/148/110
f 87/68/49 77/82/63 103/120/87
f 105/153/90 129/139/101 128/154/114
f 78/155/115 126/156/116 77/82/63
f 127/157/117 126/156/116 131/158/118
f 131/159/118 76/160/65 130/161/119
f 132/162/75 133/163/120 76/160/65
f 134/164/121 81/165/122 68/166/68
f 136/167/123 134/164/121 125/151/112
f 83/93/72 81/168/122 134/169/121
f 134/169/121 86/94/73 83/93/72
f 135/170/74 86/94/73 134/169/121
f 85/98/70 86/94/73 135/170/74
f 133/163/120 136/167/123 124/150/111
f 133/163/120 132/162/75 136/167/123
f 132/162/75 135/171/74 136/167/123
f 138/55/41 137/125/92 104/118/85
f 139/149/102 128/172/114 124/150/111
f 128/172/114 139/173/102 141/174/88
f 140/175/103 116/176/93 141/177/88
f 105/178/90 116/179/93 140/180/103
f 139/181/102 116/179/93 105/178/90
f 138/182/41 142/113/80 137/183/92
f 144/184/124 94/114/81 98/185/78
f 144/184/124 137/183/92 143/186/125
f 138/182/41 96/187/40 142/113/80
f 143/186/125 94/114/81 144/184/124
f 142/188/80 95/189/126 92/190/79
f 24/191/127 12/16/12 18/15/11
f 10/1/1 2/192/9 11/17/13
f 11/17/13 1/20/5 10/1/1
f 3/2/2 10/1/1 1/20/5
f 6/193/7 5/4/4 3/2/2
f 9/3/3 5/4/4 4/194/8
f 13/7/6 6/8/7 3/5/2
f 10/11/1 6/8/7 13/7/6
f 8/13/10 2/12/9 10/11/1
f 10/11/1 13/7/6 8/13/10
f 7/19/14 18/14/11 8/13/10
f 5/195/4 6/8/7 4/10/8
f 1/20/5 11/17/13 12/16/12
f 2/192/9 18/15/11 11/17/13
f 8/13/10 13/7/6 12/18/12
f 21/24/17 19/28/21 14/22/15
f 22/37/23 16/27/20 19/28/21
f 21/35/17 18/14/11 7/19/14
f 15/30/19 17/29/22 25/36/18
f 19/32/21 25/36/18 17/29/22
f 20/196/24 19/28/21 21/24/17
f 19/32/21 20/34/24 25/36/18
f 23/23/16 24/191/127 18/15/11
f 23/23/16 14/197/15 24/191/127
f 7/19/14 12/18/12 24/198/127
f 24/199/127 14/200/15 7/19/14
f 25/36/18 7/19/14 14/200/15
f 44/40/26 58/43/29 43/41/27
f 43/41/27 52/44/30 45/49/35
f 48/45/31 43/41/27 45/49/35
f 49/201/44 48/45/31 47/47/33
f 48/45/31 45/49/35 89/46/32
f 49/201/44 59/66/47 50/53/39
f 42/39/25 48/45/31 53/202/45
f 54/52/38 49/201/44 50/53/39
f 56/61/36 55/65/46 54/63/38
f 53/59/45 55/65/46 56/61/36
f 52/44/30 58/43/29 57/71/52
f 49/201/44 47/47/33 59/66/47
f 71/69/50 59/66/47 47/47/33
f 88/101/59 47/203/33 60/204/42
f 72/205/43 60/204/42 47/203/33
f 57/71/52 58/43/29 118/206/108
f 63/70/51 60/56/42 52/44/30
f 61/72/53 63/70/51 57/71/52
f 57/71/52 97/207/107 61/72/53
f 57/71/52 118/206/108 97/207/107
f 97/207/107 62/73/54 61/72/53
f 97/207/107 119/208/106 62/73/54
f 64/74/55 65/75/56 63/70/51
f 64/74/55 67/76/57 65/75/56
f 68/88/68 67/76/57 66/77/58
f 71/69/50 47/47/33 88/102/59
f 51/209/34 74/67/48 71/69/50
f 70/81/62 78/210/115 77/82/63
f 76/85/65 131/211/118 75/86/66
f 74/84/48 73/83/64 79/95/67
f 75/212/66 74/84/48 79/95/67
f 79/95/67 132/97/75 76/213/65
f 82/89/69 68/88/68 81/214/122
f 83/93/72 82/92/69 81/168/122
f 84/91/71 86/94/73 85/98/70
f 79/95/67 69/80/61 85/90/70
f 85/90/70 69/80/61 80/79/60
f 96/54/40 46/51/37 50/53/39
f 88/78/59 69/80/61 72/57/43
f 89/215/32 72/205/43 47/203/33
f 51/48/34 71/216/50 89/46/32
f 90/105/77 87/107/49 98/106/78
f 93/217/128 91/104/76 98/106/78
f 92/110/79 93/218/128 98/111/78
f 93/217/128 95/219/126 94/114/81
f 91/104/76 93/217/128 94/114/81
f 92/110/79 95/220/126 93/218/128
f 100/116/83 99/115/82 106/122/89
f 106/122/89 108/137/95 129/139/101
f 106/122/89 139/140/102 105/123/90
f 109/124/91 99/115/82 101/42/28
f 111/221/97 101/42/28 102/117/84
f 102/117/84 104/118/85 112/222/98
f 107/138/100 112/222/98 104/118/85
f 108/137/95 112/223/98 107/138/100
f 113/135/99 44/40/26 100/116/83
f 108/128/95 106/224/89 109/129/91
f 129/139/101 139/140/102 106/122/89
f 113/135/99 118/146/108 58/136/29
f 118/146/108 113/135/99 117/142/104
f 119/144/106 66/225/58 62/226/54
f 66/225/58 119/144/106 120/147/109
f 116/126/93 123/148/110 121/143/105
f 121/143/105 115/127/94 116/126/93
f 123/148/110 122/152/113 120/147/109
f 66/225/58 120/147/109 122/152/113
f 66/225/58 122/152/113 68/166/68
f 124/150/111 125/151/112 123/148/110
f 126/156/116 127/157/117 114/119/86
f 114/119/86 103/120/87 126/156/116
f 103/120/87 77/82/63 126/156/116
f 114/119/86 130/227/119 129/139/101
f 128/154/114 129/139/101 130/227/119
f 127/157/117 130/227/119 114/119/86
f 127/157/117 131/158/118 130/227/119
f 126/156/116 78/155/115 131/158/118
f 131/158/118 78/155/115 75/228/66
f 76/160/65 133/163/120 130/161/119
f 133/163/120 128/172/114 130/161/119
f 125/151/112 134/164/121 68/166/68
f 68/166/68 122/152/113 125/151/112
f 125/151/112 124/150/111 136/167/123
f 134/164/121 136/167/123 135/171/74
f 137/183/92 144/184/124 103/229/87
f 133/163/120 124/150/111 128/172/114
f 139/181/102 140/175/103 141/177/88
f 129/139/101 105/153/90 140/141/103
f 128/172/114 141/121/88 105/123/90
f 98/185/78 103/229/87 144/184/124
f 98/185/78 94/114/81 95/219/126
f 142/113/80 143/186/125 137/183/92
f 142/188/80 96/112/40 98/111/78
f 95/189/126 142/188/80 98/111/78
f 101/42/28 46/51/37 102/117/84
f 46/51/37 101/42/28 42/39/25
f 98/185/78 87/230/49 103/229/87
f 143/186/125 142/113/80 94/114/81
l 30 29
l 26 27
l 35 36
l 37 38
